<svg width="24" height="25" fill="none" xmlns="http://www.w3.org/2000/svg"><path d="M12 14.443a2.406 2.406 0 001.949-3.814A2.397 2.397 0 0012 9.626a2.4 2.4 0 00-1.948 1.004A2.407 2.407 0 0012 14.443zm5.245-5.356v-2.32l-.3.001-2.013.006.007 2.32 2.306-.007z" fill="#fff"/><path d="M12 0C5.383 0 0 5.399 0 12.034c0 6.635 5.383 12.034 12 12.034 6.616 0 12-5.399 12-12.034C24 5.4 18.617 0 12 0zm6.825 10.63v5.603a2.644 2.644 0 01-2.638 2.646H7.813a2.644 2.644 0 01-2.638-2.646V7.836A2.644 2.644 0 017.813 5.19h8.373a2.644 2.644 0 012.639 2.645v2.794z" fill="#fff"/><path d="M15.733 12.034A3.743 3.743 0 0112 15.778a3.742 3.742 0 01-3.458-5.148H6.505v5.603a1.31 1.31 0 001.308 1.311h8.373a1.31 1.31 0 001.308-1.31V10.63h-2.038c.177.433.277.908.277 1.404z" fill="#fff"/></svg>