<svg width="24" height="25" fill="none" xmlns="http://www.w3.org/2000/svg"><path d="M12 .932C5.383.932 0 6.33 0 12.966 0 19.6 5.383 25 12 25c6.616 0 12-5.399 12-12.034C24 6.33 18.617.932 12 .932zm5.353 9.28c.006.119.008.239.008.36 0 3.66-2.777 7.879-7.859 7.879a7.796 7.796 0 01-4.233-1.244 5.533 5.533 0 004.09-1.147 2.766 2.766 0 01-2.581-1.923 2.776 2.776 0 001.247-.047 2.768 2.768 0 01-2.215-2.716v-.035c.372.207.798.332 1.25.346A2.77 2.77 0 015.833 9.38c0-.508.136-.984.374-1.393a7.835 7.835 0 005.692 2.895 2.772 2.772 0 01-.07-.632 2.766 2.766 0 012.76-2.77c.796 0 1.512.337 2.017.875a5.504 5.504 0 001.755-.672 2.78 2.78 0 01-1.216 1.532 5.48 5.48 0 001.586-.435 5.565 5.565 0 01-1.377 1.432z" fill="#fff"/></svg>