<svg width="24" height="25" fill="none" xmlns="http://www.w3.org/2000/svg"><path d="M10.392 14.94c-.077-.051-.157-.107-.24-.164a2.73 2.73 0 00-.766-.117h-.032c-1.216 0-2.28.737-2.28 1.579 0 .916.912 1.632 2.077 1.632 1.537 0 2.315-.532 2.315-1.58 0-.098-.011-.2-.036-.304-.104-.406-.476-.66-1.038-1.045zm-.86-3.193a.93.93 0 00.726-.333c.298-.34.43-.898.351-1.491-.137-1.06-.893-1.942-1.681-1.965h-.032a.93.93 0 00-.716.332c-.294.336-.418.868-.341 1.46.138 1.058.91 1.973 1.681 1.997h.012z" fill="#fff"/><path d="M12 .912C5.383.912 0 6.311 0 12.947 0 19.581 5.383 24.98 12 24.98c6.616 0 12-5.4 12-12.035S18.617.912 12 .912zm-1.383 17.895a5.24 5.24 0 01-1.46.197 6.668 6.668 0 01-1.637-.196c-.995-.252-1.73-.729-2.072-1.343a1.713 1.713 0 01-.223-.842c0-.302.072-.609.214-.912.545-1.164 1.98-1.948 3.571-1.948h.046a1.424 1.424 0 01-.142-1.091c-1.669-.038-2.917-1.264-2.917-2.88 0-1.14.909-2.251 2.21-2.7a3.58 3.58 0 011.175-.204h3.568a.281.281 0 01.165.509l-.798.579a.285.285 0 01-.165.052h-.285c.368.444.584 1.076.584 1.787 0 .783-.395 1.525-1.115 2.09-.556.434-.577.553-.577.801.006.136.394.58.821.884.995.706 1.365 1.398 1.365 2.554 0 1.207-.914 2.25-2.328 2.663zm8.058-6.138a.281.281 0 01-.28.28h-2.028v2.035a.281.281 0 01-.28.281h-.577a.281.281 0 01-.282-.28V12.95h-2.026a.28.28 0 01-.28-.281v-.579c0-.155.125-.282.28-.282h2.026V9.776a.28.28 0 01.282-.281h.577a.28.28 0 01.28.28v2.033h2.027c.154 0 .28.126.28.281v.58z" fill="#fff"/></svg>