<svg width="51" height="33" fill="none" xmlns="http://www.w3.org/2000/svg"><path d="M47.59 10.697c-.035-.038-.063-.075-.103-.113l-1.761-1.68c1.46-.327 3.032-1.536 3.032-2.777 0-1.446-2.03-1.959-3.762-1.959-1.81 0-2.021 1.227-2.043 2.094l-4.543-4.33C37.487 1.03 35.736.318 34.427.318H16.725c-1.308 0-3.058.711-3.982 1.614L8.2 6.262c-.023-.867-.233-2.094-2.043-2.094-1.734 0-3.763.513-3.763 1.959 0 1.24 1.574 2.45 3.034 2.777l-1.76 1.68c-.04.037-.069.075-.103.114C1.68 12.288.45 15.24.45 17.383v6.364a5.77 5.77 0 001.612 3.992v2.469c0 1.443 1.223 2.62 2.726 2.62h3.297c1.503 0 2.725-1.175 2.725-2.62v-.632h29.533v.632c0 1.445 1.22 2.62 2.726 2.62h3.296c1.504 0 2.725-1.177 2.725-2.62v-2.469a5.765 5.765 0 001.612-3.992v-6.364c.002-2.142-1.229-5.094-3.113-6.685zm-33.178-6.84c.639-.527 1.756-.926 2.313-.926h17.704c.557 0 1.674.4 2.313.925L42.7 9.563H8.455l5.957-5.707zM2.494 16.42c0-1.568 1.24-2.84 2.773-2.84 1.531 0 6.535 2.903 6.535 4.47 0 1.568-5.004 1.205-6.535 1.205-1.532 0-2.773-1.267-2.773-2.835zm8.317 10.365H9.754l-3.133.006c-.87-.268-1.483-.58-1.917-.916a2.7 2.7 0 01-.519-.52 2.03 2.03 0 01-.291-.527c-.39-1.089.415-2.09.415-2.09h5.348l3.565 4.046-2.411.002zm22.455.003H17.888c-1.603 0-2.905-1.287-2.905-2.87h21.188c0 1.585-1.302 2.87-2.905 2.87zm.675-4.829H17.213c-1.744 0-3.16-2.124-3.16-4.745H37.1c0 2.622-1.415 4.745-3.159 4.745zm13.32 2.871c-.064.175-.16.349-.292.525-.13.176-.299.352-.52.521-.432.336-1.046.65-1.916.916l-3.133-.006h-3.47l3.567-4.044h5.347c0-.001.806.997.417 2.088zm-1.374-5.575c-1.53 0-6.535.36-6.535-1.204 0-1.565 5.005-4.47 6.535-4.47 1.532 0 2.773 1.271 2.773 2.839 0 1.566-1.241 2.835-2.773 2.835z" fill="#fff"/></svg>