<svg width="24" height="25" viewBox="0 0 24 25" fill="none" xmlns="http://www.w3.org/2000/svg">
<path d="M11.9995 14.4433C13.3234 14.4433 14.4028 13.3628 14.4028 12.0341C14.4028 11.5096 14.2317 11.0254 13.9484 10.6298C13.5119 10.0229 12.8024 9.62496 12.0009 9.62496C11.199 9.62496 10.49 10.0224 10.0525 10.6293C9.76829 11.0249 9.59863 11.5091 9.59815 12.0336C9.5967 13.3623 10.6751 14.4433 11.9995 14.4433Z" fill="white"/>
<path d="M17.2455 9.08697V7.06754V6.76701L16.9444 6.76798L14.9316 6.77428L14.9394 9.09472L17.2455 9.08697Z" fill="white"/>
<path d="M12 0C5.38323 0 0 5.39854 0 12.0341C0 18.6693 5.38323 24.0683 12 24.0683C18.6163 24.0683 24 18.6693 24 12.0341C24 5.39854 18.6173 0 12 0ZM18.8246 10.6299V16.2334C18.8246 17.693 17.6413 18.8791 16.1869 18.8791H7.8131C6.35817 18.8791 5.17538 17.693 5.17538 16.2334V10.6299V7.83581C5.17538 6.37675 6.35817 5.19059 7.8131 5.19059H16.1864C17.6413 5.19059 18.8246 6.37675 18.8246 7.83581V10.6299Z" fill="white"/>
<path d="M15.733 12.0341C15.733 14.0977 14.0587 15.7778 12 15.7778C9.94136 15.7778 8.26747 14.0977 8.26747 12.0341C8.26747 11.5377 8.36607 11.0632 8.54202 10.6298H6.50464V16.2334C6.50464 16.9576 7.09096 17.5442 7.81262 17.5442H16.1859C16.9066 17.5442 17.4939 16.9576 17.4939 16.2334V10.6298H15.4556C15.633 11.0632 15.733 11.5377 15.733 12.0341Z" fill="white"/>
</svg>
