<svg width="24" height="25" viewBox="0 0 24 25" fill="none" xmlns="http://www.w3.org/2000/svg">
<path d="M12 0.931725C5.38323 0.931725 0 6.33027 0 12.9659C0 19.601 5.38323 25 12 25C18.6163 25 24 19.601 24 12.9659C24 6.33027 18.6173 0.931725 12 0.931725ZM17.3533 10.2116C17.3586 10.3308 17.3615 10.451 17.3615 10.5713C17.3615 14.2315 14.5841 18.4507 9.50246 18.4507C7.94264 18.4507 6.49061 17.9936 5.26867 17.2073C5.48473 17.233 5.70466 17.2461 5.9275 17.2461C7.22194 17.2461 8.41247 16.8031 9.35793 16.0604C8.14952 16.0381 7.12914 15.2374 6.77773 14.1365C6.94594 14.1685 7.11947 14.1864 7.29687 14.1864C7.5487 14.1864 7.79328 14.1535 8.02481 14.09C6.7613 13.836 5.80955 12.7167 5.80955 11.374C5.80955 11.3623 5.80955 11.3502 5.81004 11.3391C6.18223 11.5461 6.60807 11.6711 7.0605 11.6852C6.31999 11.1893 5.83227 10.341 5.83227 9.38025C5.83227 8.87224 5.9681 8.39623 6.20591 7.98711C7.56755 9.66334 9.60348 10.7656 11.8985 10.882C11.8511 10.6789 11.8274 10.468 11.8274 10.2504C11.8274 8.721 13.0639 7.48055 14.5889 7.48055C15.3835 7.48055 16.1004 7.81696 16.605 8.35502C17.2348 8.23093 17.8245 8.00116 18.3596 7.68269C18.1518 8.32982 17.7153 8.87224 17.1435 9.21544C17.7027 9.14854 18.2364 9.00021 18.7299 8.77966C18.3616 9.3342 17.8932 9.82233 17.3533 10.2116Z" fill="white"/>
</svg>
