<svg width="24" height="25" viewBox="0 0 24 25" fill="none" xmlns="http://www.w3.org/2000/svg">
<path d="M10.3924 14.9407C10.3146 14.8889 10.2348 14.8326 10.1512 14.7759C9.90805 14.7013 9.64993 14.6625 9.38553 14.6591H9.35363C8.13845 14.6591 7.07312 15.3964 7.07312 16.2379C7.07312 17.154 7.98619 17.87 9.1511 17.87C10.6877 17.87 11.4664 17.3378 11.4664 16.2907C11.4664 16.1918 11.4548 16.0891 11.4302 15.9858C11.3262 15.5796 10.9545 15.3261 10.3924 14.9407Z" fill="white"/>
<path d="M9.53153 11.7473C9.5325 11.7473 9.5325 11.7473 9.5325 11.7473C9.823 11.7473 10.0681 11.6324 10.258 11.4143C10.5558 11.074 10.6877 10.5156 10.6094 9.92272C10.4717 8.86308 9.71617 7.98085 8.92781 7.95807L8.89639 7.9571C8.61749 7.9571 8.36855 8.07247 8.17956 8.28963C7.88616 8.62556 7.76193 9.1578 7.83879 9.74967C7.97703 10.8083 8.74848 11.723 9.52041 11.7473H9.53153Z" fill="white"/>
<path d="M12 0.912384C5.38323 0.912384 0 6.31093 0 12.9465C0 19.5816 5.38323 24.9807 12 24.9807C18.6163 24.9807 24 19.5816 24 12.9465C24 6.31093 18.6173 0.912384 12 0.912384ZM10.6166 18.8065C10.1632 18.9379 9.6726 19.0043 9.15782 19.0043C8.58455 19.0043 8.03351 18.9384 7.5197 18.808C6.52542 18.5564 5.7907 18.0794 5.44752 17.4648C5.29961 17.1991 5.22468 16.9161 5.22468 16.6228C5.22468 16.3208 5.29671 16.0144 5.43881 15.711C5.98357 14.5466 7.41964 13.7633 9.01039 13.7633C9.02634 13.7633 9.04133 13.7633 9.05583 13.7633C8.92677 13.535 8.86442 13.2984 8.86442 13.0498C8.86442 12.9262 8.88085 12.8001 8.91372 12.6717C7.24515 12.6339 5.99662 11.4084 5.99662 9.79281C5.99662 8.65222 6.90582 7.54071 8.20607 7.09184C8.59518 6.95708 8.99202 6.88825 9.3821 6.88825H12.9503C13.0716 6.88825 13.1794 6.96726 13.2171 7.08312C13.2548 7.19848 13.2132 7.32549 13.1151 7.39674L12.3171 7.97601C12.2692 8.00994 12.2117 8.02836 12.1523 8.02836H11.8666C12.2354 8.4719 12.4515 9.10448 12.4515 9.81462C12.4515 10.5984 12.0561 11.3396 11.3363 11.9043C10.7805 12.3387 10.7587 12.4584 10.7587 12.7061C10.7655 12.8423 11.1527 13.2868 11.58 13.5898C12.5752 14.2956 12.9455 14.9882 12.9455 16.1439C12.945 17.3514 12.0309 18.3945 10.6166 18.8065ZM18.6748 12.6688C18.6748 12.8239 18.5486 12.9499 18.3944 12.9499H16.3667V14.9844C16.3667 15.1395 16.2406 15.2655 16.0873 15.2655H15.5097C15.3541 15.2655 15.2284 15.1395 15.2284 14.9844V12.9499H13.2021C13.0475 12.9499 12.9218 12.8249 12.9218 12.6688V12.0905C12.9218 11.9354 13.0475 11.8084 13.2021 11.8084H15.2284V9.77584C15.2284 9.62024 15.3541 9.49469 15.5097 9.49469H16.0873C16.2406 9.49469 16.3667 9.62024 16.3667 9.77584V11.8084H18.3939C18.5481 11.8084 18.6743 11.9344 18.6743 12.0895V12.6688H18.6748Z" fill="white"/>
</svg>
