<svg width="24" height="25" viewBox="0 0 24 25" fill="none" xmlns="http://www.w3.org/2000/svg">
<path d="M12 0.621147C5.38323 0.621147 0 6.01969 0 12.6553C0 19.2904 5.38323 24.6894 12 24.6894C18.6163 24.6894 24 19.2904 24 12.6553C24 6.01969 18.6173 0.621147 12 0.621147ZM14.9843 13.0789H13.032C13.032 16.207 13.032 20.0573 13.032 20.0573H10.139C10.139 20.0573 10.139 16.2443 10.139 13.0789H8.76388V10.6126H10.139V9.01732C10.139 7.87479 10.6804 6.08949 13.0586 6.08949L15.2023 6.09773V8.49186C15.2023 8.49186 13.8996 8.49186 13.6463 8.49186C13.3931 8.49186 13.0329 8.61886 13.0329 9.16371V10.6131H15.2371L14.9843 13.0789Z" fill="white"/>
</svg>
